<?xml version="1.0" encoding="UTF-8" standalone="no"?>
<svg width="134px" height="48px" viewBox="0 0 134 48" version="1.1" xmlns="http://www.w3.org/2000/svg" xmlns:xlink="http://www.w3.org/1999/xlink" xmlns:sketch="http://www.bohemiancoding.com/sketch/ns">
    <!-- Generator: Sketch 3.2 (9961) - http://www.bohemiancoding.com/sketch -->
    <title>nito</title>
    <desc>Created with Sketch.</desc>
    <defs></defs>
    <g id="Page-1" stroke="none" stroke-width="1" fill="none" fill-rule="evenodd" sketch:type="MSPage">
        <path d="M25,28.5 L9.8,0.3 L0,0.3 L0,47.6 L9.6,47.6 L9.6,19.8 L24.9,47.6 L34.6,47.6 L34.6,0.3 L25,0.3 L25,28.5 Z M43.5,0.3 L53.2,0.3 L53.2,47.5 L43.5,47.5 L43.5,0.3 Z M59,9.5 L71.7,9.5 L71.7,47.6 L81.4,47.6 L81.4,9.5 L94.1,9.5 L94.1,0.3 L59,0.3 L59,9.5 Z M126.9,1.5 C125.6,0.7 123.6,0 121.7,0 L109.3,0 C107.3,0 105.4,0.7 104.1,1.5 C102.4,2.5 99.3,5.9 98.4,7.2 C97.4,8.7 97.1,10.4 97.1,12.2 L97.1,35.9 C97.1,37.6 97.4,39.3 98.4,40.8 C99.3,42.1 102.4,45.5 104.1,46.5 C105.4,47.3 107.3,48 109.3,48 L121.7,48 C123.6,48 125.6,47.3 126.9,46.5 C128.6,45.5 131.6,42.1 132.6,40.8 C133.6,39.3 133.9,37.6 133.9,35.9 L133.9,12.1 C133.9,10.4 133.6,8.6 132.6,7.1 C131.7,5.9 128.7,2.5 126.9,1.5 Z M124.4,35.8 C123.5,36.9 122.1,38.2 121.5,38.7 L109.5,38.7 C108.9,38.3 107.5,37 106.7,35.8 L106.7,12.2 C107.6,10.9 109,9.7 109.6,9.2 L121.6,9.2 C122.4,9.7 123.9,11.2 124.4,12.1 L124.4,35.8 L124.4,35.8 Z" id="Shape" fill="#263641" sketch:type="MSShapeGroup"></path>
    </g>
</svg>