<?xml version="1.0" encoding="UTF-8" standalone="no"?>
<svg width="386px" height="49px" viewBox="0 0 386 49" version="1.1" xmlns="http://www.w3.org/2000/svg" xmlns:xlink="http://www.w3.org/1999/xlink" xmlns:sketch="http://www.bohemiancoding.com/sketch/ns">
    <!-- Generator: Sketch 3.2 (9961) - http://www.bohemiancoding.com/sketch -->
    <title>nito+tagline</title>
    <desc>Created with Sketch.</desc>
    <defs></defs>
    <g id="Page-1" stroke="none" stroke-width="1" fill="none" fill-rule="evenodd" sketch:type="MSPage">
        <path d="M25,28.5 L9.8,0.3 L0,0.3 L0,47.6 L9.6,47.6 L9.6,19.8 L24.9,47.6 L34.6,47.6 L34.6,0.3 L25,0.3 L25,28.5 Z M43.5,0.3 L53.2,0.3 L53.2,47.5 L43.5,47.5 L43.5,0.3 Z M59,9.5 L71.7,9.5 L71.7,47.6 L81.4,47.6 L81.4,9.5 L94.1,9.5 L94.1,0.3 L59,0.3 L59,9.5 Z M126.9,1.5 C125.6,0.7 123.6,0 121.7,0 L109.3,0 C107.3,0 105.4,0.7 104.1,1.5 C102.4,2.5 99.3,5.9 98.4,7.2 C97.4,8.7 97.1,10.4 97.1,12.2 L97.1,35.9 C97.1,37.6 97.4,39.3 98.4,40.8 C99.3,42.1 102.4,45.5 104.1,46.5 C105.4,47.3 107.3,48 109.3,48 L121.7,48 C123.6,48 125.6,47.3 126.9,46.5 C128.6,45.5 131.6,42.1 132.6,40.8 C133.6,39.3 133.9,37.6 133.9,35.9 L133.9,12.1 C133.9,10.4 133.6,8.6 132.6,7.1 C131.7,5.9 128.7,2.5 126.9,1.5 Z M124.4,35.8 C123.5,36.9 122.1,38.2 121.5,38.7 L109.5,38.7 C108.9,38.3 107.5,37 106.7,35.8 L106.7,12.2 C107.6,10.9 109,9.7 109.6,9.2 L121.6,9.2 C122.4,9.7 123.9,11.2 124.4,12.1 L124.4,35.8 L124.4,35.8 Z" id="Shape" fill="#263641" sketch:type="MSShapeGroup"></path>
        <path d="M147.4,29.4 L143.1,20.9 L141.4,20.9 L141.4,31.9 L142.8,31.9 L142.8,23.5 L147.2,31.9 L148.8,31.9 L148.8,20.9 L147.4,20.9 L147.4,29.4 Z M157.6,21.1 C157.3,20.9 156.9,20.8 156.6,20.8 L153.8,20.8 C153.5,20.8 153.1,20.9 152.8,21.1 C152.5,21.3 151.7,22.1 151.5,22.4 C151.3,22.7 151.3,23.1 151.3,23.4 L151.3,29.4 C151.3,29.7 151.4,30.1 151.5,30.4 C151.7,30.7 152.4,31.5 152.8,31.7 C153.1,31.9 153.5,32 153.8,32 L156.6,32 C156.9,32 157.3,31.9 157.6,31.7 C157.9,31.5 158.6,30.7 158.9,30.4 C159.1,30.1 159.2,29.8 159.2,29.4 L159.2,23.4 C159.2,23.1 159.1,22.7 158.9,22.4 C158.7,22.1 158,21.3 157.6,21.1 Z M157.7,29.4 C157.7,29.7 157,30.4 156.7,30.5 L156.6,30.5 L154,30.5 L153.9,30.5 C153.6,30.4 152.9,29.6 152.9,29.4 L152.9,23.4 C152.9,23.1 153.7,22.4 153.9,22.2 L154,22.2 L156.6,22.2 L156.7,22.2 C156.9,22.3 157.5,22.9 157.7,23.2 L157.7,23.3 L157.7,29.4 Z M167.5,27 C167.7,26.8 168.3,26.2 168.4,26 C168.6,25.7 168.7,25.3 168.7,25 L168.7,23.3 C168.7,22.9 168.6,22.6 168.4,22.3 C168.3,22.1 167.7,21.5 167.5,21.3 C167.2,21.1 166.7,20.9 166.3,20.9 L161.4,20.9 L161.4,31.9 L162.8,31.9 L162.8,27.3 L165.2,27.3 L167.7,31.9 L169.3,31.9 L166.7,27.3 C166.9,27.3 167.3,27.1 167.5,27 Z M162.8,25.9 L162.8,22.3 L166.3,22.3 L166.4,22.3 C166.6,22.3 167.1,22.9 167.3,23.1 L167.3,23.3 L167.3,24.9 L167.3,25.1 C167.2,25.4 166.7,25.9 166.3,25.9 L162.8,25.9 Z M179.1,29.3 L179.1,25.6 L175.3,25.6 L175.3,27 L177.7,27 L177.7,29.3 C177.7,29.6 176.9,30.3 176.6,30.5 L176.5,30.5 L174,30.5 L173.9,30.5 C173.6,30.4 172.9,29.7 172.9,29.4 L172.9,23.4 L172.9,23.3 C173.1,22.9 173.7,22.4 173.9,22.3 L174,22.3 L176.6,22.3 L176.7,22.3 C177,22.4 177.5,22.9 177.7,23.3 C177.7,23.3 177.7,23.4 177.9,23.7 L179.3,23.3 C179.1,22.8 179,22.6 178.8,22.4 C178.3,21.7 177.6,20.9 176.6,20.9 L173.9,20.9 C173.6,20.9 173.2,21 172.9,21.2 C172.6,21.4 171.9,22.2 171.6,22.5 C171.4,22.8 171.3,23.1 171.3,23.5 L171.3,29.5 C171.3,29.8 171.4,30.2 171.6,30.5 C171.8,30.8 172.5,31.6 172.9,31.8 C173.2,32 173.6,32.1 173.9,32.1 L176.6,32.1 C177.2,32.1 177.5,31.7 177.9,31.4 C177.9,31.5 178,31.8 178,32 L179.4,32 C179.2,30.8 179.1,30 179.1,29.3 Z M181.7,31.9 L188.1,31.9 L188.1,30.5 L183.1,30.5 L183.1,27.1 L187.8,27.1 L187.8,25.7 L183.1,25.7 L183.1,22.3 L188.1,22.3 L188.1,20.9 L181.7,20.9 L181.7,31.9 Z M197.1,26.3 L192.3,24.9 C192.1,24.8 191.9,24.6 191.9,24.3 L191.9,23.3 C191.9,23 192.7,22.3 192.9,22.2 L193,22.2 L195.5,22.2 L195.6,22.2 C195.9,22.3 196.4,22.8 196.6,23.2 C196.6,23.2 196.6,23.3 196.8,23.6 L198.2,23.2 C198,22.7 197.9,22.4 197.7,22.3 C197.2,21.6 196.5,20.8 195.6,20.8 L193,20.8 C192.7,20.8 192.3,20.9 192,21.1 C191.7,21.3 190.9,22.1 190.7,22.4 C190.5,22.7 190.5,23.1 190.5,23.4 L190.5,24.5 C190.5,25.3 190.9,26.2 191.7,26.4 L196.5,27.7 C196.7,27.8 196.9,28 196.9,28.3 L196.9,29.4 C196.9,29.7 196.1,30.4 195.9,30.5 L195.8,30.5 L193,30.5 L192.9,30.5 C192.6,30.4 192.1,29.9 191.9,29.5 C191.9,29.5 191.8,29.4 191.7,29.2 L190.3,29.6 C190.5,30.1 190.6,30.4 190.8,30.6 C191.3,31.3 192,32.1 193,32.1 L195.9,32.1 C196.2,32.1 196.6,32 196.9,31.8 C197.2,31.6 198,30.8 198.2,30.5 C198.4,30.2 198.4,29.8 198.4,29.5 L198.4,28.3 C198.4,27.4 197.9,26.6 197.1,26.3 Z M210.8,31.7 C211.1,31.5 211.9,30.7 212.1,30.4 C212.3,30.1 212.3,29.7 212.3,29.4 L212.3,28.2 C212.3,27.4 211.8,26.6 211,26.4 L206.2,25 C206,24.9 205.8,24.7 205.8,24.4 L205.8,23.4 C205.8,23.1 206.6,22.4 206.8,22.3 L206.9,22.3 L209.4,22.3 L209.5,22.3 C209.8,22.4 210.3,22.9 210.5,23.3 C210.5,23.3 210.5,23.4 210.7,23.7 L212.1,23.3 C211.9,22.8 211.8,22.5 211.6,22.4 C211.1,21.7 210.4,20.9 209.5,20.9 L207,20.9 C206.7,20.9 206.3,21 206,21.2 C205.7,21.4 204.9,22.2 204.7,22.5 C204.5,22.8 204.5,23.2 204.5,23.5 L204.5,24.6 C204.5,25.4 204.9,26.3 205.7,26.5 L210.5,27.8 C210.7,27.9 210.9,28.1 210.9,28.4 L210.9,29.5 C210.9,29.8 210.1,30.5 209.9,30.6 L209.8,30.6 L207,30.6 L206.9,30.6 C206.6,30.5 206.1,30 205.9,29.6 C205.9,29.6 205.8,29.5 205.7,29.3 L204.3,29.7 C204.5,30.2 204.6,30.5 204.8,30.7 C205.3,31.4 206,32.2 207,32.2 L209.9,32.2 C210.2,32 210.6,31.9 210.8,31.7 Z M214,22.3 L217,22.3 L217,31.9 L218.4,31.9 L218.4,22.3 L221.4,22.3 L221.4,20.9 L214,20.9 L214,22.3 Z M231.1,20.5 L229.5,20.5 L229.3,20.9 C229.1,20.8 228.9,20.8 228.7,20.8 L225.7,20.8 C225.4,20.8 225,20.9 224.7,21.1 C224.4,21.3 223.7,22.1 223.4,22.4 C223.2,22.7 223.2,23.1 223.2,23.4 L223.2,29.4 C223.2,30.2 223.5,30.5 224,31 L223.3,32.4 L224.9,32.4 L225.2,31.8 C225.4,31.9 225.6,31.9 225.8,31.9 L228.8,31.9 C229.1,31.9 229.5,31.8 229.8,31.6 C230.1,31.4 230.8,30.6 231,30.3 C231.2,30 231.3,29.6 231.3,29.3 L231.3,23.3 C231.3,22.5 231,22.1 230.5,21.6 L231.1,20.5 Z M224.8,29.6 C224.8,29.5 224.7,29.5 224.7,29.4 L224.7,23.5 C224.7,23.2 225.4,22.5 225.7,22.3 L225.8,22.3 L228.6,22.3 L224.8,29.6 L224.8,29.6 Z M229.8,29.4 C229.8,29.7 229.1,30.4 228.8,30.5 L228.7,30.5 L225.9,30.5 L229.7,23.1 C229.8,23.2 229.8,23.2 229.8,23.4 L229.8,29.4 Z M239.6,27 C239.8,26.8 240.4,26.2 240.5,26 C240.7,25.7 240.8,25.3 240.8,25 L240.8,23.3 C240.8,22.9 240.7,22.6 240.5,22.3 C240.4,22.1 239.8,21.5 239.6,21.3 C239.3,21.1 238.8,20.9 238.4,20.9 L233.5,20.9 L233.5,31.9 L234.9,31.9 L234.9,27.3 L237.3,27.3 L239.8,31.9 L241.4,31.9 L238.8,27.3 C239.1,27.3 239.4,27.1 239.6,27 Z M235,25.9 L235,22.3 L238.5,22.3 L238.6,22.3 C238.8,22.3 239.3,22.9 239.5,23.1 L239.5,23.3 L239.5,24.9 L239.5,25.1 C239.4,25.4 238.9,25.9 238.5,25.9 L235,25.9 Z M250,26.3 L245.2,24.9 C245,24.8 244.8,24.6 244.8,24.3 L244.8,23.3 C244.8,23 245.6,22.3 245.8,22.2 L245.9,22.2 L248.4,22.2 L248.5,22.2 C248.8,22.3 249.3,22.8 249.5,23.2 C249.5,23.2 249.5,23.3 249.7,23.6 L251.1,23.2 C250.9,22.7 250.8,22.4 250.6,22.3 C250.1,21.6 249.4,20.8 248.5,20.8 L245.9,20.8 C245.6,20.8 245.2,20.9 244.9,21.1 C244.6,21.3 243.8,22.1 243.6,22.4 C243.4,22.7 243.4,23.1 243.4,23.4 L243.4,24.5 C243.4,25.3 243.8,26.2 244.6,26.4 L249.4,27.7 C249.6,27.8 249.8,28 249.8,28.3 L249.8,29.4 C249.8,29.7 249,30.4 248.8,30.5 L248.7,30.5 L245.9,30.5 L245.8,30.5 C245.5,30.4 245,29.9 244.8,29.5 C244.8,29.5 244.7,29.4 244.6,29.2 L243.2,29.6 C243.4,30.1 243.5,30.4 243.7,30.6 C244.2,31.3 244.9,32.1 245.9,32.1 L248.8,32.1 C249.1,32.1 249.5,32 249.8,31.8 C250.1,31.6 250.9,30.8 251.1,30.5 C251.3,30.2 251.3,29.8 251.3,29.5 L251.3,28.3 C251.3,27.4 250.8,26.6 250,26.3 Z M255.9,31.9 L257.4,31.9 L257.4,22.3 L260.3,22.3 L260.3,20.9 L252.9,20.9 L252.9,22.3 L255.9,22.3 L255.9,31.9 Z M268.6,30.5 L263.6,30.5 L263.6,27.1 L268.3,27.1 L268.3,25.7 L263.6,25.7 L263.6,22.3 L268.6,22.3 L268.6,20.9 L262.2,20.9 L262.2,31.9 L268.6,31.9 L268.6,30.5 Z M280.8,32 C281.1,32 281.5,31.9 281.8,31.7 C282.1,31.5 282.8,30.7 283.1,30.4 C283.3,30.1 283.4,29.8 283.4,29.4 L283.4,23.4 C283.4,23.1 283.3,22.7 283.1,22.4 C282.9,22.1 282.2,21.3 281.8,21.1 C281.5,20.9 281.1,20.8 280.8,20.8 L278,20.8 C277.7,20.8 277.3,20.9 277,21.1 C276.7,21.3 275.9,22.1 275.7,22.4 C275.5,22.7 275.5,23.1 275.5,23.4 L275.5,29.4 C275.5,29.7 275.6,30.1 275.7,30.4 C275.9,30.7 276.6,31.5 277,31.7 C277.3,31.9 277.7,32 278,32 L280.8,32 Z M277,29.4 L277,23.4 C277,23.1 277.8,22.4 278,22.2 L278.1,22.2 L280.7,22.2 L280.8,22.2 C281,22.3 281.6,22.9 281.8,23.2 L281.8,23.3 L281.8,29.3 C281.8,29.6 281.1,30.3 280.8,30.4 L280.7,30.4 L278.1,30.4 L278,30.4 C277.7,30.4 277,29.7 277,29.4 Z M293.4,31.9 L290.8,27.3 C291,27.3 291.4,27.1 291.6,27 C291.8,26.8 292.4,26.2 292.5,26 C292.7,25.7 292.8,25.3 292.8,25 L292.8,23.3 C292.8,22.9 292.7,22.6 292.5,22.3 C292.4,22.1 291.8,21.5 291.6,21.3 C291.3,21.1 290.8,20.9 290.4,20.9 L285.5,20.9 L285.5,31.9 L286.9,31.9 L286.9,27.3 L289.3,27.3 L291.8,31.9 L293.4,31.9 Z M287,25.9 L287,22.3 L290.5,22.3 L290.6,22.3 C290.8,22.3 291.3,22.9 291.5,23.1 L291.5,23.3 L291.5,24.9 L291.5,25.1 C291.4,25.4 290.9,25.9 290.5,25.9 L287,25.9 Z M302.2,31.9 L303.6,31.9 C303.4,30.8 303.3,30 303.3,29.3 L303.3,25.6 L299.5,25.6 L299.5,27 L301.9,27 L301.9,29.3 C301.9,29.6 301.1,30.3 300.8,30.5 L300.7,30.5 L298.2,30.5 L298.1,30.5 C297.8,30.4 297.1,29.7 297.1,29.4 L297.1,23.4 L297.1,23.3 C297.3,22.9 297.9,22.4 298.1,22.3 L298.2,22.3 L300.8,22.3 L300.9,22.3 C301.2,22.4 301.7,22.9 301.9,23.3 C301.9,23.3 301.9,23.4 302.1,23.7 L303.5,23.3 C303.3,22.8 303.2,22.6 303,22.4 C302.5,21.7 301.8,20.9 300.8,20.9 L298.1,20.9 C297.8,20.9 297.4,21 297.1,21.2 C296.8,21.4 296.1,22.2 295.8,22.5 C295.6,22.8 295.5,23.1 295.5,23.5 L295.5,29.5 C295.5,29.8 295.6,30.2 295.8,30.5 C296,30.8 296.7,31.6 297.1,31.8 C297.4,32 297.8,32.1 298.1,32.1 L300.8,32.1 C301.4,32.1 301.7,31.7 302.1,31.4 C302.1,31.4 302.1,31.7 302.2,31.9 Z M307.2,29.5 L311.7,29.5 L312.5,32 L314,32 L310.4,21 L308.5,21 L304.9,32 L306.4,32 L307.2,29.5 Z M309.4,22.4 L311.2,28 L307.6,28 L309.4,22.4 Z M317.1,23.5 L321.5,31.9 L323.2,31.9 L323.2,20.9 L321.8,20.9 L321.8,29.4 L317.4,20.9 L315.7,20.9 L315.7,31.9 L317.1,31.9 L317.1,23.5 Z M325.7,20.9 L327.1,20.9 L327.1,31.9 L325.7,31.9 L325.7,20.9 Z M336.1,26.3 L331.3,24.9 C331.1,24.8 330.9,24.6 330.9,24.3 L330.9,23.3 C330.9,23 331.7,22.3 331.9,22.2 L332,22.2 L334.5,22.2 L334.6,22.2 C334.9,22.3 335.4,22.8 335.6,23.2 C335.6,23.2 335.6,23.3 335.8,23.6 L337.2,23.2 C337,22.7 336.9,22.4 336.7,22.3 C336.2,21.6 335.5,20.8 334.6,20.8 L332,20.8 C331.7,20.8 331.3,20.9 331,21.1 C330.7,21.3 329.9,22.1 329.7,22.4 C329.5,22.7 329.5,23.1 329.5,23.4 L329.5,24.5 C329.5,25.3 329.9,26.2 330.7,26.4 L335.5,27.7 C335.7,27.8 335.9,28 335.9,28.3 L335.9,29.4 C335.9,29.7 335.1,30.4 334.9,30.5 L334.8,30.5 L332,30.5 L331.9,30.5 C331.6,30.4 331.1,29.9 330.9,29.5 C330.9,29.5 330.8,29.4 330.7,29.2 L329.3,29.6 C329.5,30.1 329.6,30.4 329.8,30.6 C330.3,31.3 331,32.1 332,32.1 L334.9,32.1 C335.2,32.1 335.6,32 335.9,31.8 C336.2,31.6 337,30.8 337.2,30.5 C337.4,30.2 337.4,29.8 337.4,29.5 L337.4,28.3 C337.4,27.4 336.9,26.6 336.1,26.3 Z M344,20.9 L342.1,20.9 L338.5,31.9 L340,31.9 L340.8,29.4 L345.3,29.4 L346.1,31.9 L347.6,31.9 L344,20.9 Z M341.3,28 L343.1,22.4 L344.9,28 L341.3,28 Z M355.9,26.3 L351.1,24.9 C350.9,24.8 350.7,24.6 350.7,24.3 L350.7,23.3 C350.7,23 351.5,22.3 351.7,22.2 L351.8,22.2 L354.3,22.2 L354.4,22.2 C354.7,22.3 355.2,22.8 355.4,23.2 C355.4,23.2 355.4,23.3 355.6,23.6 L357,23.2 C356.8,22.7 356.7,22.4 356.5,22.3 C356,21.6 355.3,20.8 354.4,20.8 L351.8,20.8 C351.5,20.8 351.1,20.9 350.8,21.1 C350.5,21.3 349.7,22.1 349.5,22.4 C349.3,22.7 349.3,23.1 349.3,23.4 L349.3,24.5 C349.3,25.3 349.7,26.2 350.5,26.4 L355.3,27.7 C355.5,27.8 355.7,28 355.7,28.3 L355.7,29.4 C355.7,29.7 354.9,30.4 354.7,30.5 L354.6,30.5 L351.8,30.5 L351.7,30.5 C351.4,30.4 350.9,29.9 350.7,29.5 C350.7,29.5 350.6,29.4 350.5,29.2 L349.1,29.6 C349.3,30.1 349.4,30.4 349.6,30.6 C350.1,31.3 350.8,32.1 351.8,32.1 L354.7,32.1 C355,32.1 355.4,32 355.7,31.8 C356,31.6 356.8,30.8 357,30.5 C357.2,30.2 357.2,29.8 357.2,29.5 L357.2,28.3 C357.2,27.4 356.7,26.6 355.9,26.3 Z M361.2,32 L362.6,32 C362.9,32 363.3,31.9 363.6,31.7 C363.9,31.5 364.6,30.7 364.8,30.4 C365,30.1 365.1,29.8 365.1,29.4 L365.1,20.9 L363.7,20.9 L363.7,29.4 C363.7,29.7 362.9,30.4 362.6,30.5 L362.5,30.5 L361.3,30.5 L361.1,30.5 C360.7,30.3 360.1,29.7 360,29.1 L358.6,29.5 C358.8,30 359,30.3 359.1,30.5 C359.5,31.2 360.2,32 361.2,32 Z M373.7,21.1 C373.4,20.9 373,20.8 372.7,20.8 L370,20.8 C369.7,20.8 369.3,20.9 369,21.1 C368.7,21.3 367.9,22.1 367.7,22.4 C367.5,22.7 367.5,23.1 367.5,23.4 L367.5,29.4 C367.5,29.7 367.6,30.1 367.7,30.4 C367.9,30.7 368.6,31.5 369,31.7 C369.3,31.9 369.7,32 370,32 L372.8,32 C373.1,32 373.5,31.9 373.8,31.7 C374.1,31.5 374.8,30.7 375.1,30.4 C375.3,30.1 375.4,29.8 375.4,29.4 L375.4,23.4 C375.4,23.1 375.3,22.7 375.1,22.4 C374.8,22.1 374.1,21.3 373.7,21.1 Z M373.8,29.4 C373.8,29.7 373.1,30.4 372.8,30.5 L372.7,30.5 L370.1,30.5 L370,30.5 C369.7,30.4 369,29.6 369,29.4 L369,23.4 C369,23.1 369.8,22.4 370,22.2 L370.1,22.2 L372.7,22.2 L372.8,22.2 C373,22.3 373.6,22.9 373.8,23.2 L373.8,23.3 L373.8,29.4 Z M383.6,20.9 L383.6,29.4 L379.2,20.9 L377.5,20.9 L377.5,31.9 L379,31.9 L379,23.5 L383.3,31.9 L385,31.9 L385,20.9 L383.6,20.9 Z M141.4,47.9 L142.8,47.9 L142.8,43.1 L147.5,43.1 L147.5,41.7 L142.8,41.7 L142.8,38.3 L147.8,38.3 L147.8,36.9 L141.4,36.9 L141.4,47.9 Z M156.2,37.1 C155.9,36.9 155.5,36.8 155.2,36.8 L152.4,36.8 C152.1,36.8 151.7,36.9 151.4,37.1 C151.1,37.3 150.3,38.1 150.1,38.4 C149.9,38.7 149.9,39.1 149.9,39.4 L149.9,45.4 C149.9,45.7 150,46.1 150.1,46.4 C150.3,46.7 151,47.5 151.4,47.7 C151.7,47.9 152.1,48 152.4,48 L155.2,48 C155.5,48 155.9,47.9 156.2,47.7 C156.5,47.5 157.2,46.7 157.5,46.4 C157.7,46.1 157.8,45.8 157.8,45.4 L157.8,39.4 C157.8,39.1 157.7,38.7 157.5,38.4 C157.3,38.1 156.6,37.3 156.2,37.1 Z M156.3,45.4 C156.3,45.7 155.6,46.4 155.3,46.5 L155.2,46.5 L152.6,46.5 L152.5,46.5 C152.2,46.4 151.5,45.6 151.5,45.4 L151.5,39.4 C151.5,39.1 152.3,38.4 152.5,38.2 L152.6,38.2 L155.2,38.2 L155.3,38.2 C155.5,38.3 156.1,38.9 156.3,39.2 L156.3,39.3 L156.3,45.4 Z M166.5,42.9 C166.7,42.7 167.3,42.1 167.4,41.9 C167.6,41.6 167.7,41.2 167.7,40.9 L167.7,39.2 C167.7,38.8 167.6,38.5 167.4,38.2 C167.3,38 166.7,37.4 166.5,37.2 C166.2,37 165.7,36.8 165.3,36.8 L160.4,36.8 L160.4,47.8 L161.8,47.8 L161.8,43.2 L164.2,43.2 L166.7,47.8 L168.3,47.8 L165.7,43.2 C165.9,43.3 166.3,43.1 166.5,42.9 Z M161.9,41.9 L161.9,38.3 L165.4,38.3 L165.5,38.3 C165.7,38.3 166.2,38.9 166.4,39.1 L166.4,39.3 L166.4,40.9 L166.4,41.1 C166.3,41.4 165.8,41.9 165.4,41.9 L161.9,41.9 Z M175.2,36.9 L176.6,36.9 L176.6,47.9 L175.2,47.9 L175.2,36.9 Z M185.3,45.4 L180.9,36.9 L179.2,36.9 L179.2,47.9 L180.6,47.9 L180.6,39.5 L185,47.9 L186.7,47.9 L186.7,36.9 L185.3,36.9 L185.3,45.4 Z M197,41.6 L193.2,41.6 L193.2,43 L195.6,43 L195.6,45.3 C195.6,45.6 194.8,46.3 194.5,46.5 L194.4,46.5 L191.9,46.5 L191.8,46.5 C191.5,46.4 190.8,45.7 190.8,45.4 L190.8,39.4 L190.8,39.3 C191,38.9 191.6,38.4 191.8,38.3 L191.9,38.3 L194.5,38.3 L194.6,38.3 C194.9,38.4 195.4,38.9 195.6,39.3 C195.6,39.3 195.6,39.4 195.8,39.7 L197.2,39.3 C197,38.8 196.9,38.6 196.7,38.4 C196.2,37.7 195.5,36.9 194.5,36.9 L191.8,36.9 C191.5,36.9 191.1,37 190.8,37.2 C190.5,37.4 189.8,38.2 189.5,38.5 C189.3,38.8 189.2,39.1 189.2,39.5 L189.2,45.5 C189.2,45.8 189.3,46.2 189.5,46.5 C189.7,46.8 190.4,47.6 190.8,47.8 C191.1,48 191.5,48.1 191.8,48.1 L194.5,48.1 C195.1,48.1 195.4,47.7 195.8,47.4 C195.8,47.5 195.9,47.8 195.9,48 L197.3,48 C197.1,46.9 197,46.1 197,45.4 L197,41.6 Z M199.7,47.9 L206.1,47.9 L206.1,46.5 L201.1,46.5 L201.1,43.1 L205.8,43.1 L205.8,41.7 L201.1,41.7 L201.1,38.3 L206.1,38.3 L206.1,36.9 L199.7,36.9 L199.7,47.9 Z M214.7,45.4 L210.4,36.9 L208.7,36.9 L208.7,47.9 L210.1,47.9 L210.1,39.5 L214.5,47.9 L216.1,47.9 L216.1,36.9 L214.7,36.9 L214.7,45.4 Z M219.1,36.9 L220.5,36.9 L220.5,47.9 L219.1,47.9 L219.1,36.9 Z M231,36.5 L229.4,36.5 L229.2,36.9 C229,36.8 228.8,36.8 228.6,36.8 L225.6,36.8 C225.3,36.8 224.9,36.9 224.6,37.1 C224.3,37.3 223.6,38.1 223.3,38.4 C223.1,38.7 223.1,39.1 223.1,39.4 L223.1,45.4 C223.1,46.2 223.4,46.5 223.9,47 L223.2,48.4 L224.8,48.4 L225.1,47.8 C225.3,47.9 225.5,47.9 225.7,47.9 L228.7,47.9 C229,47.9 229.4,47.8 229.7,47.6 C230,47.4 230.7,46.6 230.9,46.3 C231.1,46 231.2,45.6 231.2,45.3 L231.2,39.3 C231.2,38.5 230.9,38.1 230.4,37.6 L231,36.5 Z M224.6,45.6 C224.6,45.5 224.5,45.5 224.5,45.4 L224.5,39.5 C224.5,39.2 225.2,38.5 225.5,38.3 L225.6,38.3 L228.4,38.3 L224.6,45.6 L224.6,45.6 Z M229.7,45.4 C229.7,45.7 229,46.4 228.7,46.5 L228.6,46.5 L225.8,46.5 L229.6,39.1 C229.7,39.2 229.7,39.2 229.7,39.4 L229.7,45.4 Z M239.6,42.9 C239.8,42.7 240.4,42.1 240.5,41.9 C240.7,41.6 240.8,41.2 240.8,40.9 L240.8,39.2 C240.8,38.8 240.7,38.5 240.5,38.2 C240.4,38 239.8,37.4 239.6,37.2 C239.3,37 238.8,36.8 238.4,36.8 L233.5,36.8 L233.5,47.8 L234.9,47.8 L234.9,43.2 L237.3,43.2 L239.8,47.8 L241.4,47.8 L238.8,43.2 C239,43.3 239.4,43.1 239.6,42.9 Z M234.9,41.9 L234.9,38.3 L238.4,38.3 L238.5,38.3 C238.7,38.3 239.2,38.9 239.4,39.1 L239.4,39.3 L239.4,40.9 L239.4,41.1 C239.3,41.4 238.8,41.9 238.4,41.9 L234.9,41.9 Z M243.5,47.9 L249.9,47.9 L249.9,46.5 L244.9,46.5 L244.9,43.1 L249.7,43.1 L249.7,41.7 L244.9,41.7 L244.9,38.3 L249.9,38.3 L249.9,36.9 L243.5,36.9 L243.5,47.9 Z M258.6,42.9 C258.8,42.7 259.4,42.1 259.5,41.9 C259.7,41.6 259.8,41.2 259.8,40.9 L259.8,39.2 C259.8,38.8 259.7,38.5 259.5,38.2 C259.4,38 258.8,37.4 258.6,37.2 C258.3,37 257.8,36.8 257.4,36.8 L252.5,36.8 L252.5,47.8 L253.9,47.8 L253.9,43.2 L256.3,43.2 L258.8,47.8 L260.4,47.8 L257.8,43.2 C258,43.3 258.4,43.1 258.6,42.9 Z M254,41.9 L254,38.3 L257.5,38.3 L257.6,38.3 C257.8,38.3 258.3,38.9 258.5,39.1 L258.5,39.3 L258.5,40.9 L258.5,41.1 C258.4,41.4 257.9,41.9 257.5,41.9 L254,41.9 Z M273.7,37.1 C273.4,36.9 273,36.8 272.7,36.8 L269.9,36.8 C269.6,36.8 269.2,36.9 268.9,37.1 C268.6,37.3 267.8,38.1 267.6,38.4 C267.4,38.7 267.4,39.1 267.4,39.4 L267.4,45.4 C267.4,45.7 267.5,46.1 267.6,46.4 C267.8,46.7 268.5,47.5 268.9,47.7 C269.2,47.9 269.6,48 269.9,48 L272.7,48 C273,48 273.4,47.9 273.7,47.7 C274,47.5 274.7,46.7 275,46.4 C275.2,46.1 275.3,45.8 275.3,45.4 L275.3,39.4 C275.3,39.1 275.2,38.7 275,38.4 C274.7,38.1 274,37.3 273.7,37.1 Z M273.7,45.4 C273.7,45.7 273,46.4 272.7,46.5 L272.6,46.5 L270,46.5 L269.9,46.5 C269.6,46.4 268.9,45.6 268.9,45.4 L268.9,39.4 C268.9,39.1 269.7,38.4 269.9,38.2 L270,38.2 L272.6,38.2 L272.7,38.2 C272.9,38.3 273.5,38.9 273.7,39.2 L273.7,39.3 L273.7,45.4 L273.7,45.4 Z M285.2,41.6 L281.4,41.6 L281.4,43 L283.8,43 L283.8,45.3 C283.8,45.6 283,46.3 282.7,46.5 L282.6,46.5 L280.1,46.5 L280,46.5 C279.7,46.4 279,45.7 279,45.4 L279,39.4 L279,39.3 C279.2,38.9 279.8,38.4 280,38.3 L280.1,38.3 L282.7,38.3 L282.8,38.3 C283.1,38.4 283.6,38.9 283.8,39.3 C283.8,39.3 283.8,39.4 284,39.7 L285.4,39.3 C285.2,38.8 285.1,38.6 284.9,38.4 C284.4,37.7 283.7,36.9 282.7,36.9 L280,36.9 C279.7,36.9 279.3,37 279,37.2 C278.7,37.4 278,38.2 277.7,38.5 C277.5,38.8 277.4,39.1 277.4,39.5 L277.4,45.5 C277.4,45.8 277.5,46.2 277.7,46.5 C277.9,46.8 278.6,47.6 279,47.8 C279.3,48 279.7,48.1 280,48.1 L282.7,48.1 C283.3,48.1 283.6,47.7 284,47.4 C284,47.5 284.1,47.8 284.1,48 L285.5,48 C285.3,46.9 285.2,46.1 285.2,45.4 L285.2,41.6 Z M291.8,38.3 L294.8,38.3 L294.8,47.9 L296.3,47.9 L296.3,38.3 L299.2,38.3 L299.2,36.9 L291.8,36.9 L291.8,38.3 Z M301.1,47.9 L307.5,47.9 L307.5,46.5 L302.6,46.5 L302.6,43.1 L307.3,43.1 L307.3,41.7 L302.6,41.7 L302.6,38.3 L307.5,38.3 L307.5,36.9 L301.1,36.9 L301.1,47.9 Z M317.6,36.9 L315.8,36.9 L311.5,41.6 L311.5,36.9 L310.1,36.9 L310.1,47.9 L311.5,47.9 L311.5,43.2 L315.8,47.9 L317.7,47.9 L312.7,42.4 L317.6,36.9 Z M325.2,45.4 L320.8,36.9 L319.1,36.9 L319.1,47.9 L320.6,47.9 L320.6,39.5 L324.9,47.9 L326.6,47.9 L326.6,36.9 L325.2,36.9 L325.2,45.4 Z M335.4,37.1 C335.1,36.9 334.7,36.8 334.4,36.8 L331.6,36.8 C331.3,36.8 330.9,36.9 330.6,37.1 C330.3,37.3 329.5,38.1 329.3,38.4 C329.1,38.7 329.1,39.1 329.1,39.4 L329.1,45.4 C329.1,45.7 329.2,46.1 329.3,46.4 C329.5,46.7 330.2,47.5 330.6,47.7 C330.9,47.9 331.3,48 331.6,48 L334.4,48 C334.7,48 335.1,47.9 335.4,47.7 C335.7,47.5 336.4,46.7 336.7,46.4 C336.9,46.1 337,45.8 337,45.4 L337,39.4 C337,39.1 336.9,38.7 336.7,38.4 C336.5,38.1 335.8,37.3 335.4,37.1 Z M335.5,45.4 C335.5,45.7 334.8,46.4 334.5,46.5 L334.4,46.5 L331.8,46.5 L331.7,46.5 C331.4,46.4 330.7,45.6 330.7,45.4 L330.7,39.4 C330.7,39.1 331.5,38.4 331.7,38.2 L331.8,38.2 L334.4,38.2 L334.5,38.2 C334.7,38.3 335.3,38.9 335.5,39.2 L335.5,39.3 L335.5,45.4 Z M340.7,36.9 L339.3,36.9 L339.3,47.9 L345.6,47.9 L345.6,46.5 L340.7,46.5 L340.7,36.9 Z M353.9,37.1 C353.6,36.9 353.2,36.8 352.9,36.8 L350.1,36.8 C349.8,36.8 349.4,36.9 349.1,37.1 C348.8,37.3 348,38.1 347.8,38.4 C347.6,38.7 347.6,39.1 347.6,39.4 L347.6,45.4 C347.6,45.7 347.7,46.1 347.8,46.4 C348,46.7 348.7,47.5 349.1,47.7 C349.4,47.9 349.8,48 350.1,48 L352.9,48 C353.2,48 353.6,47.9 353.9,47.7 C354.2,47.5 354.9,46.7 355.2,46.4 C355.4,46.1 355.5,45.8 355.5,45.4 L355.5,39.4 C355.5,39.1 355.4,38.7 355.2,38.4 C354.9,38.1 354.2,37.3 353.9,37.1 Z M354,45.4 C354,45.7 353.3,46.4 353,46.5 L352.9,46.5 L350.3,46.5 L350.2,46.5 C349.9,46.4 349.2,45.6 349.2,45.4 L349.2,39.4 C349.2,39.1 350,38.4 350.2,38.2 L350.3,38.2 L352.9,38.2 L353,38.2 C353.2,38.3 353.8,38.9 354,39.2 L354,39.3 L354,45.4 Z M365.5,41.6 L361.7,41.6 L361.7,43 L364.1,43 L364.1,45.3 C364.1,45.6 363.3,46.3 363,46.5 L362.9,46.5 L360.4,46.5 L360.3,46.5 C360,46.4 359.3,45.7 359.3,45.4 L359.3,39.4 L359.3,39.3 C359.5,38.9 360.1,38.4 360.3,38.3 L360.4,38.3 L363,38.3 L363.1,38.3 C363.4,38.4 363.9,38.9 364.1,39.3 C364.1,39.3 364.1,39.4 364.3,39.7 L365.7,39.3 C365.5,38.8 365.4,38.6 365.2,38.4 C364.7,37.7 364,36.9 363,36.9 L360.3,36.9 C360,36.9 359.6,37 359.3,37.2 C359,37.4 358.3,38.2 358,38.5 C357.8,38.8 357.7,39.1 357.7,39.5 L357.7,45.5 C357.7,45.8 357.8,46.2 358,46.5 C358.2,46.8 358.9,47.6 359.3,47.8 C359.6,48 360,48.1 360.3,48.1 L363,48.1 C363.6,48.1 363.9,47.7 364.3,47.4 C364.3,47.5 364.4,47.8 364.4,48 L365.8,48 C365.6,46.9 365.5,46.1 365.5,45.4 L365.5,41.6 L365.5,41.6 Z M368.1,47.9 L374.5,47.9 L374.5,46.5 L369.5,46.5 L369.5,43.1 L374.2,43.1 L374.2,41.7 L369.5,41.7 L369.5,38.3 L374.5,38.3 L374.5,36.9 L368.1,36.9 L368.1,47.9 Z M383.2,42.9 C383.4,42.7 384,42.1 384.1,41.9 C384.3,41.6 384.4,41.2 384.4,40.9 L384.4,39.2 C384.4,38.8 384.3,38.5 384.1,38.2 C384,38 383.4,37.4 383.2,37.2 C382.9,37 382.4,36.8 382,36.8 L377.1,36.8 L377.1,47.8 L378.5,47.8 L378.5,43.2 L380.9,43.2 L383.4,47.8 L385,47.8 L382.4,43.2 C382.6,43.3 382.9,43.1 383.2,42.9 Z M378.5,41.9 L378.5,38.3 L382,38.3 L382.1,38.3 C382.3,38.3 382.8,38.9 383,39.1 L383,39.3 L383,40.9 L383,41.1 C382.9,41.4 382.4,41.9 382,41.9 L378.5,41.9 L378.5,41.9 Z" id="Shape" fill="#263641" sketch:type="MSShapeGroup"></path>
    </g>
</svg>